{
  "accessors": [
    {
      "bufferView": 1,
      "componentType": 5126,
      "count": 32490,
      "max": [
        59.08700180053711,
        -0.0,
        8.12600040435791
      ],
      "min": [
        -6.9079999923706055,
        -55.39799880981445,
        -74.66699981689453
      ],
      "type": "VEC3"
    },
    {
      "bufferView": 1,
      "byteOffset": 389880,
      "componentType": 5126,
      "count": 32490,
      "max": [
        1.0,
        1.0,
        1.0
      ],
      "min": [
        -1.0,
        -1.0,
        -1.0
      ],
      "type": "VEC3"
    },
    {
      "bufferView": 0,
      "componentType": 5125,
      "count": 96525,
      "type": "SCALAR"
    },
    {
      "bufferView": 1,
      "byteOffset": 779760,
      "componentType": 5126,
      "count": 2892,
      "max": [
        47.20000076293945,
        -0.6000000238418579,
        -6.5
      ],
      "min": [
        -5.00600004196167,
        -5.706999778747559,
        -44.599998474121094
      ],
      "type": "VEC3"
    },
    {
      "bufferView": 1,
      "byteOffset": 814464,
      "componentType": 5126,
      "count": 2892,
      "max": [
        1.0,
        0.9997637271881104,
        1.0
      ],
      "min": [
        -1.0,
        -1.0,
        -1.0
      ],
      "type": "VEC3"
    },
    {
      "bufferView": 0,
      "byteOffset": 386100,
      "componentType": 5125,
      "count": 10062,
      "type": "SCALAR"
    },
    {
      "bufferView": 1,
      "byteOffset": 849168,
      "componentType": 5126,
      "count": 1755,
      "max": [
        55.62519836425781,
        -0.0,
        2.117000102996826
      ],
      "min": [
        48.584999084472656,
        -3.5,
        -2.4609999656677246
      ],
      "type": "VEC3"
    },
    {
      "bufferView": 1,
      "byteOffset": 870228,
      "componentType": 5126,
      "count": 1755,
      "max": [
        1.0,
        1.0,
        1.0
      ],
      "min": [
        -1.0,
        -1.0,
        -1.0
      ],
      "type": "VEC3"
    },
    {
      "bufferView": 0,
      "byteOffset": 426348,
      "componentType": 5125,
      "count": 5193,
      "type": "SCALAR"
    },
    {
      "bufferView": 1,
      "byteOffset": 891288,
      "componentType": 5126,
      "count": 37626,
      "max": [
        50.0,
        -0.0,
        4.099999904632568
      ],
      "min": [
        -6.300000190734863,
        -9.5,
        -64.12000274658203
      ],
      "type": "VEC3"
    },
    {
      "bufferView": 1,
      "byteOffset": 1342800,
      "componentType": 5126,
      "count": 37626,
      "max": [
        1.0,
        1.0,
        1.0
      ],
      "min": [
        -1.0,
        -1.0,
        -1.0
      ],
      "type": "VEC3"
    },
    {
      "bufferView": 0,
      "byteOffset": 447120,
      "componentType": 5125,
      "count": 157518,
      "type": "SCALAR"
    },
    {
      "bufferView": 1,
      "byteOffset": 1794312,
      "componentType": 5126,
      "count": 9541,
      "max": [
        47.0880012512207,
        -0.10000000149011612,
        2.818000078201294
      ],
      "min": [
        -5.625,
        -7.8979997634887695,
        -57.52000045776367
      ],
      "type": "VEC3"
    },
    {
      "bufferView": 1,
      "byteOffset": 1908804,
      "componentType": 5126,
      "count": 9541,
      "max": [
        1.0,
        1.0,
        1.0
      ],
      "min": [
        -1.0,
        -0.999817967414856,
        -1.0
      ],
      "type": "VEC3"
    },
    {
      "bufferView": 0,
      "byteOffset": 1077192,
      "componentType": 5125,
      "count": 27837,
      "type": "SCALAR"
    },
    {
      "bufferView": 1,
      "byteOffset": 2023296,
      "componentType": 5126,
      "count": 5463,
      "max": [
        45.8380012512207,
        -2.0999999046325684,
        -6.25
      ],
      "min": [
        -4.453999996185303,
        -6.199999809265137,
        -44.849998474121094
      ],
      "type": "VEC3"
    },
    {
      "bufferView": 1,
      "byteOffset": 2088852,
      "componentType": 5126,
      "count": 5463,
      "max": [
        1.0,
        1.0,
        1.0
      ],
      "min": [
        -1.0,
        -1.0,
        -1.0
      ],
      "type": "VEC3"
    },
    {
      "bufferView": 0,
      "byteOffset": 1188540,
      "componentType": 5125,
      "count": 16245,
      "type": "SCALAR"
    }
  ],
  "asset": {
    "extras": {
      "author": "ilovegm.rgm79 (https://sketchfab.com/ilovegm.rgm79)",
      "license": "CC-BY-4.0 (http://creativecommons.org/licenses/by/4.0/)",
      "source": "https://sketchfab.com/3d-models/mecha-hangar-bay-vehicles-219c2a397a844822b2035a197a63c2ad",
      "title": "Mecha Hangar Bay Vehicles"
    },
    "generator": "Sketchfab-12.65.0",
    "version": "2.0"
  },
  "bufferViews": [
    {
      "buffer": 0,
      "byteLength": 1253520,
      "name": "floatBufferViews",
      "target": 34963
    },
    {
      "buffer": 0,
      "byteLength": 2154408,
      "byteOffset": 1253520,
      "byteStride": 12,
      "name": "floatBufferViews",
      "target": 34962
    }
  ],
  "buffers": [
    {
      "byteLength": 3407928,
      "uri": "scene.bin"
    }
  ],
  "materials": [
    {
      "doubleSided": true,
      "name": "color_10988977",
      "pbrMetallicRoughness": {
        "baseColorFactor": [
          0.654902,
          0.678431,
          0.694118,
          1.0
        ],
        "metallicFactor": 0.0
      }
    },
    {
      "doubleSided": true,
      "name": "color_12568524",
      "pbrMetallicRoughness": {
        "baseColorFactor": [
          0.74902,
          0.780392,
          0.8,
          1.0
        ],
        "metallicFactor": 0.0
      }
    },
    {
      "doubleSided": true,
      "name": "color_14541540",
      "pbrMetallicRoughness": {
        "baseColorFactor": [
          0.866667,
          0.886275,
          0.894118,
          1.0
        ],
        "metallicFactor": 0.0
      }
    },
    {
      "doubleSided": true,
      "name": "color_14789940",
      "pbrMetallicRoughness": {
        "baseColorFactor": [
          0.882353,
          0.678431,
          0.203922,
          1.0
        ],
        "metallicFactor": 0.0
      }
    },
    {
      "doubleSided": true,
      "name": "color_2829873",
      "pbrMetallicRoughness": {
        "baseColorFactor": [
          0.168627,
          0.180392,
          0.192157,
          1.0
        ],
        "metallicFactor": 0.0
      }
    },
    {
      "doubleSided": true,
      "name": "color_6383466",
      "pbrMetallicRoughness": {
        "baseColorFactor": [
          0.380392,
          0.403922,
          0.415686,
          1.0
        ],
        "metallicFactor": 0.0
      }
    }
  ],
  "meshes": [
    {
      "name": "Object_0",
      "primitives": [
        {
          "attributes": {
            "NORMAL": 1,
            "POSITION": 0
          },
          "indices": 2,
          "material": 0,
          "mode": 4
        }
      ]
    },
    {
      "name": "Object_1",
      "primitives": [
        {
          "attributes": {
            "NORMAL": 4,
            "POSITION": 3
          },
          "indices": 5,
          "material": 1,
          "mode": 4
        }
      ]
    },
    {
      "name": "Object_2",
      "primitives": [
        {
          "attributes": {
            "NORMAL": 7,
            "POSITION": 6
          },
          "indices": 8,
          "material": 2,
          "mode": 4
        }
      ]
    },
    {
      "name": "Object_3",
      "primitives": [
        {
          "attributes": {
            "NORMAL": 10,
            "POSITION": 9
          },
          "indices": 11,
          "material": 3,
          "mode": 4
        }
      ]
    },
    {
      "name": "Object_4",
      "primitives": [
        {
          "attributes": {
            "NORMAL": 13,
            "POSITION": 12
          },
          "indices": 14,
          "material": 4,
          "mode": 4
        }
      ]
    },
    {
      "name": "Object_5",
      "primitives": [
        {
          "attributes": {
            "NORMAL": 16,
            "POSITION": 15
          },
          "indices": 17,
          "material": 5,
          "mode": 4
        }
      ]
    }
  ],
  "nodes": [
    {
      "children": [
        1
      ],
      "matrix": [
        1.0,
        0.0,
        0.0,
        0.0,
        0.0,
        2.220446049250313e-16,
        -1.0,
        0.0,
        0.0,
        1.0,
        2.220446049250313e-16,
        0.0,
        0.0,
        0.0,
        0.0,
        1.0
      ],
      "name": "Sketchfab_model"
    },
    {
      "children": [
        2,
        3,
        4,
        5,
        6,
        7
      ],
      "name": "Mecha Bay Vehicles Free Version.obj.cleaner.materialmerger.gles"
    },
    {
      "mesh": 0,
      "name": "Object_2"
    },
    {
      "mesh": 1,
      "name": "Object_3"
    },
    {
      "mesh": 2,
      "name": "Object_4"
    },
    {
      "mesh": 3,
      "name": "Object_5"
    },
    {
      "mesh": 4,
      "name": "Object_6"
    },
    {
      "mesh": 5,
      "name": "Object_7"
    }
  ],
  "scene": 0,
  "scenes": [
    {
      "name": "Sketchfab_Scene",
      "nodes": [
        0
      ]
    }
  ]
}
